<svg xmlns="http://www.w3.org/2000/svg" width="150" height="50" viewBox="0,0,150,50"><path fill="#111" d="M24.14 40.47L24.08 40.42L23.95 40.29Q19.90 40.54 18.91 38.22L19.01 38.31L19.01 38.32Q19.67 37.26 21.23 35.47L21.33 35.57L21.36 35.60Q21.82 37.59 24.83 37.71L24.84 37.72L24.86 37.73Q28.23 37.79 29.87 36.46L29.91 36.50L29.92 36.51Q31.22 34.81 31.15 32.10L31.14 32.10L31.07 32.03Q31.09 27.13 26.29 27.36L26.26 27.33L26.22 27.29Q23.41 27.45 21.66 28.71L21.62 28.67L21.27 28.48L21.04 28.32L21.12 28.40Q21.37 25.15 21.26 22.41L21.30 22.45L21.26 22.41Q21.29 19.92 20.95 16.61L20.98 16.64L20.86 16.53Q24.61 17.58 28.42 17.46L28.35 17.39L28.42 17.47Q32.15 17.31 35.73 16.05L35.81 16.14L35.08 17.50L35.09 17.51Q34.84 18.32 34.65 19.16L34.59 19.11L34.57 19.08Q31.58 20.24 27.69 20.24L27.61 20.16L27.67 20.21Q26.16 20.15 24.67 20.00L24.66 19.99L24.82 20.14Q24.72 20.81 24.38 25.26L24.26 25.14L24.40 25.28Q25.10 24.69 27.16 24.54L27.16 24.54L27.23 24.61Q30.84 24.71 32.28 26.39L32.30 26.40L32.30 26.40Q33.79 28.05 34.06 31.89L33.97 31.81L33.93 31.77Q34.28 36.04 33.07 38.06L33.14 38.13L33.00 37.99Q31.00 39.91 27.68 40.14L27.76 40.22L27.79 40.25Q26.68 40.20 24.01 40.35ZM30.16 42.73L30.18 42.75L30.14 42.71Q33.50 42.72 35.40 41.62L35.33 41.55L35.48 41.69Q36.46 40.16 36.46 38.06L36.45 38.06L36.51 38.11Q36.44 34.96 35.48 30.85L35.37 30.73L35.43 30.79Q35.02 29.01 33.80 27.61L33.77 27.57L33.86 27.70L33.61 27.37L33.32 27.23L33.27 27.18Q33.07 26.57 32.42 25.88L32.38 25.84L32.41 25.91L32.43 25.93Q30.83 24.17 27.13 24.17L27.14 24.17L26.96 24.26L26.99 24.29Q26.89 23.54 27.08 22.44L27.20 22.56L27.21 22.57Q32.06 22.55 36.10 20.91L36.09 20.91L36.10 20.91Q36.57 19.56 37.52 16.74L37.52 16.74L35.37 17.64L35.40 17.66Q35.85 16.59 36.35 15.45L36.35 15.45L36.25 15.36Q32.53 16.93 28.42 17.00L28.29 16.88L28.34 16.92Q24.36 17.17 20.40 16.06L20.29 15.96L20.22 15.89Q20.93 20.33 20.93 24.75L20.98 24.79L20.92 24.73Q20.97 26.68 20.85 28.59L20.93 28.66L20.85 28.58Q21.10 28.76 21.68 29.07L21.76 29.16L21.66 29.05Q22.08 28.91 22.73 28.56L22.64 28.47L22.67 28.50Q22.61 29.24 22.39 30.77L22.35 30.73L22.37 30.75Q22.92 31.08 23.34 31.31L23.23 31.19L23.24 31.21Q26.05 29.48 27.91 29.48L27.89 29.46L27.87 29.44Q29.35 29.58 30.53 30.23L30.38 30.08L30.51 30.21Q30.75 31.13 30.78 32.08L30.86 32.16L30.90 32.20Q30.96 34.77 29.93 35.87L29.89 35.84L29.81 35.76Q28.52 37.05 26.27 37.28L26.35 37.36L26.26 37.27Q25.35 37.39 24.67 37.32L24.65 37.29L24.64 37.28Q23.83 37.20 23.07 36.86L22.96 36.75L22.92 36.52L22.93 36.76L22.95 36.77Q22.12 36.25 21.58 34.91L21.58 34.91L21.58 34.91Q20.21 36.28 18.53 38.41L18.47 38.35L18.44 38.32Q18.83 39.05 19.66 40.00L19.70 40.04L19.66 39.99Q20.70 41.79 23.51 42.29L23.46 42.23L23.51 42.28Q24.71 42.53 30.08 42.64Z"/><path fill="#333" d="M65.01 40.48L64.96 40.43L64.93 40.39Q61.86 36.42 59.24 27.78L59.38 27.92L59.29 27.83Q58.61 25.67 57.81 23.54L57.80 23.53L55.04 32.41L55.06 32.43Q53.17 37.28 50.77 40.51L50.79 40.53L50.73 40.47Q49.93 40.59 48.29 40.74L48.18 40.63L48.24 40.69Q48.44 39.60 48.44 38.34L48.48 38.38L48.37 38.26Q48.39 32.27 45.65 26.14L45.68 26.17L45.61 26.10Q42.47 19.20 36.61 14.21L36.66 14.26L36.72 14.32Q38.79 14.95 41.16 15.48L41.17 15.50L41.22 15.55Q49.83 23.93 51.13 34.89L51.22 34.99L51.22 34.99Q52.74 31.56 54.19 26.19L54.21 26.22L54.13 26.14Q56.17 18.69 56.66 17.29L56.72 17.34L59.00 17.38L58.97 17.35Q59.68 19.39 60.33 21.71L60.27 21.65L61.49 26.07L61.44 26.02Q63.13 31.60 64.54 34.83L64.47 34.76L64.42 34.71Q66.07 23.08 73.99 15.73L74.07 15.81L74.15 15.89Q75.59 15.47 78.56 14.82L78.64 14.90L78.50 14.76Q73.23 19.12 70.18 25.25L70.24 25.31L70.19 25.26Q67.15 31.54 67.15 38.32L67.11 38.28L67.09 38.26Q67.13 39.41 67.21 40.55L67.26 40.59L66.07 40.44L66.06 40.43Q65.48 40.38 64.91 40.38ZM71.22 43.34L71.09 43.21L71.20 43.32Q69.89 39.69 70.00 35.80L70.05 35.85L69.92 35.72Q70.36 24.29 79.73 16.02L79.68 15.98L79.80 16.09Q78.85 16.33 76.91 16.86L76.86 16.81L76.75 16.70Q77.87 16.04 79.78 14.25L79.72 14.19L79.78 14.25Q77.07 14.96 74.14 15.46L74.07 15.39L74.08 15.41Q66.52 22.46 64.62 31.94L64.74 32.07L64.67 31.99Q64.10 30.36 61.25 18.90L61.22 18.87L61.27 18.93Q60.84 18.98 59.88 18.98L59.94 19.04L59.53 17.87L59.57 17.91Q59.51 17.43 59.28 16.93L59.22 16.87L56.31 16.86L56.42 16.96Q55.55 19.37 54.28 24.49L54.26 24.48L54.32 24.54Q52.94 29.55 51.95 32.03L51.87 31.95L52.05 32.13Q50.31 24.07 44.76 17.75L44.92 17.91L44.91 17.91Q44.33 17.74 43.38 17.55L43.39 17.56L43.48 17.66Q42.76 16.82 41.20 15.19L41.19 15.17L41.05 15.03Q37.74 14.32 35.57 13.52L35.57 13.51L35.62 13.57Q41.22 18.17 44.49 24.38L44.60 24.48L44.50 24.38Q47.88 30.93 47.88 37.93L47.93 37.98L47.90 37.95Q47.97 39.58 47.78 41.18L47.84 41.24L47.69 41.09Q48.01 41.18 48.46 41.08L48.46 41.08L48.39 41.01Q48.96 41.03 49.19 41.03L49.23 41.07L49.22 42.08L49.21 42.08Q49.05 42.38 49.13 42.91L49.13 42.91L49.17 42.95Q50.35 42.91 52.63 42.76L52.70 42.82L52.72 42.84Q56.23 37.33 58.97 27.93L59.10 28.06L58.92 27.88Q61.85 36.82 64.82 40.78L64.74 40.70L64.68 40.64Q65.31 40.82 66.15 40.93L66.04 40.82L66.07 40.85Q66.94 41.91 68.00 42.98L68.09 43.06L68.00 42.97Q68.71 42.96 71.11 43.23Z"/><path d="M15 23 C95 8,56 48,132 12" stroke="#333" fill="none"/><path fill="#444" d="M115.53 40.10L115.68 40.25L113.30 33.42L113.28 33.39Q108.87 20.77 102.94 14.37L103.00 14.43L102.97 14.40Q105.00 15.48 107.59 16.09L107.57 16.07L107.53 16.03Q112.67 22.31 117.01 35.07L117.06 35.12L116.97 35.03Q120.04 26.95 120.73 25.35L120.78 25.40L120.81 25.43Q123.22 19.85 126.04 16.53L126.04 16.53L125.88 16.37Q128.01 16.07 130.64 15.20L130.53 15.09L130.61 15.16Q125.99 19.72 122.94 26.95L122.94 26.95L123.01 27.02Q121.52 30.59 117.82 40.11L117.81 40.10L117.87 40.15Q117.31 40.17 116.74 40.13L116.68 40.07L116.85 40.24Q116.10 40.06 115.53 40.10ZM120.66 42.64L120.61 42.59L120.71 42.69Q123.35 32.53 124.91 28.50L125.03 28.62L125.03 28.63Q127.91 20.80 132.32 15.93L132.46 16.06L132.43 16.04Q131.47 16.48 129.37 17.20L129.25 17.08L130.48 15.84L130.40 15.76Q131.01 15.11 131.62 14.46L131.52 14.37L131.56 14.41Q128.79 15.44 125.78 16.01L125.87 16.10L125.87 16.10Q121.33 21.27 117.44 32.72L117.60 32.88L117.59 32.87Q113.86 22.67 110.66 18.29L110.74 18.37L110.73 18.36Q110.25 18.18 109.37 18.03L109.45 18.10L109.40 18.05Q109.19 17.70 107.60 15.64L107.53 15.57L107.67 15.72Q104.56 14.85 101.86 13.44L102.00 13.59L101.86 13.45Q108.54 20.58 112.92 33.38L112.96 33.41L113.00 33.45Q114.10 36.99 115.28 40.57L115.34 40.64L115.23 40.52Q115.63 40.61 116.46 40.50L116.47 40.51L116.50 40.53Q116.88 41.26 117.57 42.59L117.48 42.50L117.58 42.60Q118.44 42.55 119.16 42.63L119.15 42.62L119.13 42.60Q119.87 42.62 120.64 42.62Z"/><path fill="#333" d="M79.12 41.04L79.21 41.13L79.27 41.19Q82.30 36.79 89.00 28.87L89.03 28.91L89.04 28.91Q83.12 29.12 79.35 27.75L79.38 27.78L79.32 27.72Q78.68 26.32 77.92 24.91L77.88 24.87L77.87 24.86Q81.94 26.35 86.40 26.39L86.46 26.45L86.52 26.51Q90.89 26.46 95.08 25.40L95.20 25.52L95.23 25.55Q94.81 26.20 94.55 26.73L94.46 26.64L94.52 26.70Q91.95 28.89 89.13 32.51L89.18 32.55L84.19 38.69L84.25 38.75Q86.52 38.57 88.76 38.65L88.65 38.53L88.69 38.57Q90.83 38.58 93.07 38.96L93.20 39.09L93.06 38.94Q93.34 39.68 94.06 41.70L93.94 41.58L93.94 41.58Q90.33 40.86 86.33 40.97L86.30 40.94L86.18 40.82Q82.36 41.07 78.70 42.25L78.65 42.20L78.68 42.23Q78.80 42.12 79.25 41.17ZM78.14 42.88L78.16 42.89L78.15 42.88Q78.93 42.56 80.53 42.14L80.51 42.12L80.54 42.16Q80.16 42.22 79.74 42.64L79.76 42.66L79.73 42.63Q79.62 43.32 79.01 44.47L78.98 44.44L79.00 44.46Q83.58 42.99 88.57 43.14L88.72 43.28L88.64 43.21Q93.59 43.36 98.16 45.23L98.14 45.21L98.25 45.31Q96.78 43.43 95.87 41.38L95.90 41.41L95.75 41.26Q95.00 40.96 93.93 40.73L93.99 40.79L93.95 40.75Q93.80 40.07 93.42 38.62L93.37 38.57L93.34 38.54Q91.89 38.31 88.31 38.20L88.38 38.27L88.38 38.27Q90.63 34.81 95.66 28.45L95.73 28.52L95.78 28.57Q96.01 27.81 96.69 26.48L96.62 26.40L94.30 27.14L94.40 27.23Q94.47 27.15 94.62 27.04L94.64 27.06L94.89 26.92L94.79 26.82Q95.29 25.80 95.86 24.84L95.84 24.82L95.87 24.86Q91.21 26.21 86.49 26.13L86.45 26.10L86.46 26.10Q81.57 25.93 77.07 24.10L77.23 24.26L77.26 24.29Q78.44 26.15 79.23 28.21L79.08 28.05L79.13 28.10Q79.95 28.39 81.01 28.65L81.12 28.76L81.02 28.66Q81.18 29.32 81.49 30.76L81.58 30.86L81.60 30.88Q83.06 31.00 86.37 31.16L86.54 31.33L86.52 31.30Q83.96 34.46 78.78 40.89L78.92 41.02L78.93 41.04Q78.64 41.58 78.07 42.80Z"/></svg>